<svg xmlns="http://www.w3.org/2000/svg" xmlns:xlink="http://www.w3.org/1999/xlink" viewBox="0 0 106.18 99.22"><defs><style>.cls-1{fill-rule:evenodd;fill:url(#linear-gradient);}.cls-2{fill:#fff;}</style><linearGradient id="linear-gradient" x1="91.41" y1="9.69" x2="38.8" y2="54.76" gradientUnits="userSpaceOnUse"><stop offset="0" stop-color="#ffc658"/><stop offset="0.37" stop-color="#f62b37"/><stop offset="0.64" stop-color="#c82091"/><stop offset="0.99" stop-color="#3542e0"/></linearGradient></defs><g id="Capa_2" data-name="Capa 2"><g id="Layer_1" data-name="Layer 1"><path class="cls-1" d="M99.25,40.14c1.22,1.63-.35,2.29-2,1.17s.61-3.56-2.24-3.71-3.67,2.9-3.36,5.6,2,2.39,3,4.68-.56,2.6-1.63,1.78-1-3.51-2-3-1.23,2.85-1.38,4.78.71,2-1.83,3.16S83,56.18,84.29,58.82s4,3.57,4.88,5,0,2.19-1.12,2.5-1.37-.46-2.14-2.09-1.57-2.65-3-2-.56,2.3.41,3.36,3.41,3.92,1.63,6-3.46,0-3.87-2-2.82-5.75-5.84-7.58a12.83,12.83,0,0,0-3.44-1.81,1.79,1.79,0,0,0-2,1.45c-.4,1.2-.1.85-.2,2s-1.1,1.4-.85.55a5.54,5.54,0,0,0-.45-3,1.58,1.58,0,0,0-1-.82,25.19,25.19,0,0,0-6,2.78l0,0a8.2,8.2,0,0,0-1.91,3.58c-.18.83,0,2.09-.37,3.39s-.56,1.66-.93,1.56-.36-.5,0-1.86,0-1.27.37-2.86c.36-1.43-.52-1.33-1.21-1.11-4.81,3.62-4.87,5.58-6.64,6-2.17.48-2.11-1.49-.68-1.76s.1-2.79-1.12-1.57-1,3.47-2.14,3.67-1.39-1.19-3.56,1.8-5.87,7.16-7.94,7.8-.48-.91.64-1.49.82-1.29,1.87-2.31,6-5.29,6.75-6.78-.61-1.77.34-3.06,1.83-1.83,1.43-3-1.36-.75-1.87-2.18-.71-1.52-1.7-1.15-6.29,1.87-8.73,3.5-7.38,2.13-12.53,5a61.92,61.92,0,0,0-11.5,8.65C7,81.47,5.8,82.14,4.52,81.93S1.67,79.59,4,78.27s4.54-1.83,8.81-4.38S22.6,67.43,29.26,65s10.49-3.56,12.22-8.7S40,49.76,37.61,50.38s-4.84,2.69-6.87,3.2-2.34-1.78.81-2.49,7.44-2.45,8.2-5-3.41-4.94-7.08-5.14-4.83,1-6.16-.16-.15-2.18,1.17-1.73,4.69,1.33,6.27,1,1.57-2-1.43-3.31S27.94,35,21.12,35s-11.2-.81-14.46-2.39-.76-4.79,2.45-3.51,4,3.92,8.44,4.38,7.69.2,14.51-.21,7.49-2.39,9.27-4-.46-3.24,1.05-5.14c-1.05-.9-2.06-.6-3.32-.72-1.61-.15-1.39-1-.84-1a2.34,2.34,0,0,1,1.32.28,5.67,5.67,0,0,0,2.81.37A2,2,0,0,0,44.21,22c1-1.31,1.28-2.73-1.15-4.95-3.57-3.26-5.7-5.71-3.77-6.72s2.29,2.18,4.89,3.2c2.27.89,3.14.42,6.69,1.11-1.72-2.12-2.91-2.49-5.1-3.84S44.37,8.32,45,8.59s.89,1.89,4,3.75c2.19,1.3,5.2,2.93,6.26,3.67,3.17,1.46,4.75,3.39,5.36,2.09.76-1.63-.15-2.8,1.27-4.27s2.4.06,4.87-.91c.36-1.42,1.86-2,1.86-3.83,0-2.34.2-2.19-.69-4.23s-.8-3.69-.15-4.63.79,1.29.55,2.29.34,2.19.74,3.23a24.89,24.89,0,0,0,1.64,4.33,7.82,7.82,0,0,1,.42.81,9.09,9.09,0,0,1,2.18,0c.17-.86,1.39-2.14,1.47-3.44.1-1.61,1.8-1.26,1,.42A6.47,6.47,0,0,0,75.09,11c3.13.28,3.9.14,5.53-2.35,1.73-2.65,2.29-3.26,2.8-2.14s-1.68,1.22-1.88,3.56.91,3.11,1.83,2.6.46-2.34,2.54-2.34,2.24,2,1.07,2.8-.81,2.44.46,3.1,4.43-1,5.3,1.63-1,3.82-.36,4.94,3.41-.71,5.7,1,1,3.47-.2,3.16-.61-1.58-1.78-1.17-2.09.71-2.35,3.51.51,3.16,1.23,4,2,1.94,2.24,3.77S98,38.51,99.25,40.14ZM32.71,84.26c-2.28.07-4.42,4.14-6,6a23.84,23.84,0,0,1-7.16,5.83c-2.61,1.19-2.88,3.06-1.46,3.09s3.26-1.9,6.45-5.12,4.78-3.94,7.19-6.31S33.22,84.24,32.71,84.26ZM21.48,54.8c.81-2.1-7.81.48-9.71,1.16A83.76,83.76,0,0,1,2.2,58.81c-2.65.47-2.92,3-.75,2.85s7.47-3.12,11-4.48S20.47,57.41,21.48,54.8Zm-8.56-6.11c1.36.21,4.55-.13,4.08-1.22-.6-1.36-1.57-.27-3.67,0S11.57,48.49,12.92,48.69Zm2.65-8.93c1.76.18,2.8-.43,4.43.05s3.89,1.28,4.33.51,0-1.09-.67-1.27a40.16,40.16,0,0,0-7.33-.69c-3.53-.07-4.14,0-3.74.79S13.81,39.58,15.57,39.76ZM5.19,38.46c1.57.51,2.26-1.12,1-1.5a14.9,14.9,0,0,0-5.5-1C-1.18,36.07,3.61,38,5.19,38.46ZM94.16,14c1.32.76,3.11.41,2.9-.92a2,2,0,0,0-2.44-1.93A1.53,1.53,0,0,0,94.16,14ZM30.21,22.12c1.32.77,3.1.41,2.9-.91a2,2,0,0,0-2.45-1.94A1.52,1.52,0,0,0,30.21,22.12ZM.94,52.58c1.33.76,3.11.41,2.9-.92A2,2,0,0,0,1.4,49.73,1.53,1.53,0,0,0,.94,52.58ZM35.5,59a2,2,0,0,0-2.45-1.93A1.53,1.53,0,0,0,32.59,60C33.92,60.71,35.7,60.35,35.5,59Zm.19,15.13a2,2,0,0,0-2.44-1.94,1.53,1.53,0,0,0-.46,2.86C34.12,75.84,35.9,75.48,35.69,74.16ZM72.07,63.67a1.53,1.53,0,0,0-.46,2.85c1.32.76,3.11.4,2.9-.92A2,2,0,0,0,72.07,63.67Zm24.48-9.36a1.52,1.52,0,0,0-.45,2.85c1.32.76,3.1.41,2.9-.92A2,2,0,0,0,96.55,54.31Zm9.61-26.13a2,2,0,0,0-2.44-1.94,1.53,1.53,0,0,0-.46,2.85C104.59,29.85,106.37,29.5,106.16,28.18ZM13.09,27.5c1.32.76,3.1.41,2.9-.92a2,2,0,0,0-2.45-1.93A1.52,1.52,0,0,0,13.09,27.5ZM90.27,7.86c1,.25,2.49-.77,1.78-1.63s-1.48-1-2.19-.36A1.13,1.13,0,0,0,90.27,7.86Zm2.07-5c.76.2,1.47-1,.76-1.93S92,0,91.63.44A1.77,1.77,0,0,0,92.34,2.88ZM65.44,67.71a1.78,1.78,0,0,0,.71,2.44c.77.21,1.48-1,.77-1.93S65.85,67.25,65.44,67.71ZM27.35,77.12c.15-.78-1.06-1.42-2-.64s-.9,1.13-.41,1.5A1.78,1.78,0,0,0,27.35,77.12Zm67-17.48c-.92.77-.9,1.12-.41,1.5a1.77,1.77,0,0,0,2.39-.87C96.45,59.5,95.24,58.86,94.32,59.64ZM6.13,71.18c-.92.77-.89,1.13-.41,1.51a1.79,1.79,0,0,0,2.39-.87C8.26,71,7.05,70.41,6.13,71.18Zm7.69-8.54c-.58.49-.57.71-.26,1A1.12,1.12,0,0,0,15.07,63C15.17,62.55,14.4,62.15,13.82,62.64Zm87.37-17.73c-.75-.11-.91.05-.89.43a1.13,1.13,0,0,0,1.42.77C102.15,45.86,101.94,45,101.19,44.91ZM64.18,8c.43-.25.22-1.09-.53-1.2s-.91,0-.89.43A1.13,1.13,0,0,0,64.18,8ZM32.3,27.54a1.14,1.14,0,0,0,1.42.77c.43-.25.22-1.1-.53-1.21S32.28,27.15,32.3,27.54ZM101.4,17c.43-.25.23-1.09-.53-1.21s-.91.05-.88.44A1.12,1.12,0,0,0,101.4,17ZM62.45,71.69c-.75-.11-.91,0-.88.44A1.12,1.12,0,0,0,63,72.9C63.41,72.65,63.21,71.8,62.45,71.69ZM38.37,85.23c-.75-.11-.91,0-.89.43a1.11,1.11,0,0,0,1.41.77C39.33,86.18,39.12,85.34,38.37,85.23Zm1.32-57.92c.43-.25.23-1.09-.53-1.2s-.91,0-.88.43A1.12,1.12,0,0,0,39.69,27.31Zm11-16.72c1.66.61,1.63.1,1.29-.41-1.28-1.92-3.19-4.11-4.58-3.29S49,10,50.66,10.59ZM38.51,7.09c.71-.2-.41-1.32-.68-1.69-.6-.83-3-2.69-3.73-2.69s-2,1.06-.51,2.75A5.81,5.81,0,0,0,38.51,7.09ZM48.76,2.44c1.19.68,2.14.41-.44-1.22C48.12,1.09,47.57,1.76,48.76,2.44Zm9.87,7.5c1.29.85.78-.57-.74-1.63C57.48,8,57.34,9.09,58.63,9.94ZM28.29,46.46c2-.36,3.42-1.48,2.4-1.33-2.42.36-4.53.41-5.09,1S26.26,46.81,28.29,46.46ZM101,33.25c1.29,1,.2-2-1.22-2.37C99,30.68,99.66,32.3,101,33.25ZM23.87,31.44c1.83.25,1.12-.66.15-.82-2.67-.42-5-1.22-5.75-.71S22,31.18,23.87,31.44Z"/><path class="cls-2" d="M82.44,30.7a8.72,8.72,0,0,0-2.67-5.63,9.14,9.14,0,0,0-6-2.46c-3.88-.21-13.09-.35-16.33.18a8.34,8.34,0,0,0-7.14,6.41C49.47,32,49.62,45,50.08,47.73a8.37,8.37,0,0,0,6.63,7.2c2.61.67,15.4.58,18.27.12a8.37,8.37,0,0,0,7.23-6.6C83,45.57,82.7,33.3,82.44,30.7Zm-3,16.49a5.58,5.58,0,0,1-5.25,5c-2.66.29-14.55.45-17-.24A5.42,5.42,0,0,1,53,47.28a110.17,110.17,0,0,1,0-16.66,5.56,5.56,0,0,1,5.23-5,115.75,115.75,0,0,1,16.24.06,5.59,5.59,0,0,1,5,5.27C79.76,33.69,79.85,44.28,79.4,47.19ZM66.21,30.46a8.46,8.46,0,1,0,8.46,8.47A8.46,8.46,0,0,0,66.21,30.46Zm-.06,13.93A5.48,5.48,0,1,1,71.67,39,5.47,5.47,0,0,1,66.15,44.39ZM77,30.14a2,2,0,1,1-2-2A2,2,0,0,1,77,30.14Z"/><path class="cls-2" d="M82.44,30.7a8.72,8.72,0,0,0-2.67-5.63,9.14,9.14,0,0,0-6-2.46c-3.88-.21-13.09-.35-16.33.18a8.34,8.34,0,0,0-7.14,6.41C49.47,32,49.62,45,50.08,47.73a8.37,8.37,0,0,0,6.63,7.2c2.61.67,15.4.58,18.27.12a8.37,8.37,0,0,0,7.23-6.6C83,45.57,82.7,33.3,82.44,30.7Zm-3,16.49a5.58,5.58,0,0,1-5.25,5c-2.66.29-14.55.45-17-.24A5.42,5.42,0,0,1,53,47.28a110.17,110.17,0,0,1,0-16.66,5.56,5.56,0,0,1,5.23-5,115.75,115.75,0,0,1,16.24.06,5.59,5.59,0,0,1,5,5.27C79.76,33.69,79.85,44.28,79.4,47.19ZM66.21,30.46a8.46,8.46,0,1,0,8.46,8.47A8.46,8.46,0,0,0,66.21,30.46Zm-.06,13.93A5.48,5.48,0,1,1,71.67,39,5.47,5.47,0,0,1,66.15,44.39ZM77,30.14a2,2,0,1,1-2-2A2,2,0,0,1,77,30.14Z"/></g></g></svg>