<svg xmlns="http://www.w3.org/2000/svg" xmlns:xlink="http://www.w3.org/1999/xlink" viewBox="0 0 500 500"><defs><style>.cls-1{fill:#091027;}.cls-2{fill:url(#Degradado_sin_nombre_2);}.cls-3{fill:url(#Degradado_sin_nombre_2-2);}.cls-4{fill:url(#Degradado_sin_nombre_2-3);}.cls-5{fill:url(#Degradado_sin_nombre_2-4);}.cls-6,.cls-7,.cls-8,.cls-9{stroke:#d16848;stroke-miterlimit:10;stroke-width:0.5px;}.cls-6{fill:url(#Degradado_sin_nombre_10);}.cls-7{fill:url(#Degradado_sin_nombre_2-5);}.cls-8{fill:url(#Degradado_sin_nombre_2-6);}.cls-9{fill:url(#Degradado_sin_nombre_2-7);}.cls-10{fill:url(#Degradado_sin_nombre_7);}.cls-11{fill:url(#Degradado_sin_nombre_3);}.cls-12{fill:url(#Degradado_sin_nombre_9);}.cls-13{fill:url(#Degradado_sin_nombre_9-2);}.cls-14{fill:url(#Degradado_sin_nombre_3-2);}.cls-15{fill:url(#Degradado_sin_nombre_2-8);}.cls-16{fill:url(#Degradado_sin_nombre_3-36);}</style><linearGradient id="Degradado_sin_nombre_2" x1="87.75" y1="330.34" x2="457.9" y2="330.34" gradientUnits="userSpaceOnUse"><stop offset="0" stop-color="#fff8a5"/><stop offset="0.03" stop-color="#fde67e"/><stop offset="0.04" stop-color="#f0d36f"/><stop offset="0.08" stop-color="#cb9a42"/><stop offset="0.11" stop-color="#b47727"/><stop offset="0.13" stop-color="#ab6a1c"/><stop offset="0.16" stop-color="#b67a29"/><stop offset="0.23" stop-color="#d2a44a"/><stop offset="0.32" stop-color="#fde67e"/><stop offset="0.39" stop-color="#fef298"/><stop offset="0.44" stop-color="#fff8a5"/><stop offset="0.69" stop-color="#fde67e"/><stop offset="0.7" stop-color="#f5da75"/><stop offset="0.75" stop-color="#d5ab4f"/><stop offset="0.79" stop-color="#be8834"/><stop offset="0.82" stop-color="#b07323"/><stop offset="0.85" stop-color="#ab6b1d"/><stop offset="0.87" stop-color="#ad6f20"/><stop offset="0.89" stop-color="#b57a29"/><stop offset="0.91" stop-color="#c28d38"/><stop offset="0.93" stop-color="#d3a74c"/><stop offset="0.95" stop-color="#eac967"/><stop offset="0.96" stop-color="#fde67e"/><stop offset="0.98" stop-color="#fef093"/><stop offset="1" stop-color="#fff7a0"/></linearGradient><linearGradient id="Degradado_sin_nombre_2-2" x1="87.75" y1="324.53" x2="457.9" y2="324.53" xlink:href="#Degradado_sin_nombre_2"/><linearGradient id="Degradado_sin_nombre_2-3" x1="68.01" y1="324.53" x2="438.15" y2="324.53" gradientTransform="matrix(-1, 0, 0, 1, 241.5, 0)" xlink:href="#Degradado_sin_nombre_2"/><linearGradient id="Degradado_sin_nombre_2-4" x1="68.01" y1="330.34" x2="438.15" y2="330.34" gradientTransform="matrix(-1, 0, 0, 1, 241.5, 0)" xlink:href="#Degradado_sin_nombre_2"/><linearGradient id="Degradado_sin_nombre_10" x1="203.85" y1="241.42" x2="328.83" y2="241.42" xlink:href="#Degradado_sin_nombre_2"/><linearGradient id="Degradado_sin_nombre_2-5" x1="76.48" y1="262.2" x2="418.71" y2="262.2" xlink:href="#Degradado_sin_nombre_2"/><linearGradient id="Degradado_sin_nombre_2-6" x1="-182.56" y1="262.2" x2="159.67" y2="262.2" gradientTransform="matrix(-1, 0, 0, 1, 245.35, 0)" xlink:href="#Degradado_sin_nombre_2"/><linearGradient id="Degradado_sin_nombre_2-7" x1="76.48" y1="236.66" x2="418.71" y2="236.66" xlink:href="#Degradado_sin_nombre_2"/><radialGradient id="Degradado_sin_nombre_7" cx="241.26" cy="146.05" r="61.02" gradientTransform="translate(387.46 -68.48) rotate(74.8)" xlink:href="#Degradado_sin_nombre_2"/><linearGradient id="Degradado_sin_nombre_3" x1="225.2" y1="138.09" x2="309.12" y2="138.09" gradientTransform="translate(387.46 -68.48) rotate(74.8)" gradientUnits="userSpaceOnUse"><stop offset="0" stop-color="#fbfbfb"/><stop offset="0.3" stop-color="#c6c6c6"/><stop offset="0.32" stop-color="#bcbcbc"/><stop offset="0.41" stop-color="#a0a0a0"/><stop offset="0.48" stop-color="#8f8f8f"/><stop offset="0.53" stop-color="#898989"/><stop offset="0.59" stop-color="#919191"/><stop offset="0.68" stop-color="#a7a7a7"/><stop offset="0.79" stop-color="#cbcbcb"/><stop offset="0.83" stop-color="#dcdcdc"/><stop offset="1" stop-color="#fbfbfb"/></linearGradient><linearGradient id="Degradado_sin_nombre_9" x1="259.38" y1="217.38" x2="259.38" y2="229.41" gradientUnits="userSpaceOnUse"><stop offset="0" stop-color="#979dad"/><stop offset="0.17" stop-color="#979dad" stop-opacity="0.86"/><stop offset="0.54" stop-color="#979dad" stop-opacity="0.5"/><stop offset="1" stop-color="#979dad" stop-opacity="0"/></linearGradient><linearGradient id="Degradado_sin_nombre_9-2" x1="325.05" y1="223.87" x2="325.05" y2="231.75" xlink:href="#Degradado_sin_nombre_9"/><linearGradient id="Degradado_sin_nombre_3-2" x1="250.18" y1="318" x2="250.18" y2="368.79" gradientTransform="matrix(1, 0, 0, 1, 0, 0)" xlink:href="#Degradado_sin_nombre_3"/><linearGradient id="Degradado_sin_nombre_2-8" x1="176.55" y1="329.07" x2="176.55" y2="268.77" xlink:href="#Degradado_sin_nombre_2"/><linearGradient id="Degradado_sin_nombre_3-36" x1="340.19" y1="329.07" x2="340.19" y2="268.77" gradientTransform="matrix(1, 0, 0, 1, 0, 0)" xlink:href="#Degradado_sin_nombre_3"/></defs><g id="BACKGROUND"><rect class="cls-1" width="500" height="500"/></g><g id="OBJECTS"><polygon class="cls-2" points="159.26 331.72 81.21 330.34 159.26 328.95 159.26 331.72"/><polygon class="cls-3" points="159.26 325.92 81.21 324.53 159.26 323.14 159.26 325.92"/><polygon class="cls-4" points="340.74 325.92 418.79 324.53 340.74 323.14 340.74 325.92"/><polygon class="cls-5" points="340.74 331.72 418.79 330.34 340.74 328.95 340.74 331.72"/><path class="cls-6" d="M308.56,239.53c-11.62.29-104.71,3.48-104.71,3.48l.61,1.52h13.19l-12.86.81.21.52s61.16-.35,65.69-1.11,5.34-1.68,5.34-1.68,43.58-1.09,52.8-6.1A98.09,98.09,0,0,1,308.56,239.53Z"/><path class="cls-7" d="M117.78,257.59c-11.15,2.67-15.16,10.48-15.16,10.48s5.92-8.51,21.54-9.26,58.72-1.51,58.72-1.51S128.93,254.92,117.78,257.59Z"/><path class="cls-8" d="M386.61,257.59c11.15,2.67,15.16,10.48,15.16,10.48s-5.92-8.51-21.55-9.26-58.71-1.51-58.71-1.51S375.46,254.92,386.61,257.59Z"/><path class="cls-9" d="M292,212.41c-43.91-3-64.21,4.35-80.24,10.1s-30.05,17.69-44.69,20-54,1.63-69.5,6.28c-6,1.78-9.86,3.15-12.11,4A2.17,2.17,0,0,0,84.41,256s8.28-5,26.48-7.31a204.07,204.07,0,0,1,34.24-1.4s-35.37,1.8-45.65,5.87c-5.45,2.15-8.68,3.49-10.51,4.7a2.75,2.75,0,0,0-.81,3.78s9.45-7.61,25.89-9.06c13.76-1.22,60-1.82,74.78-2a8.46,8.46,0,0,0,6.91-3.7c1.72-2.53,4-5.56,5.61-6.33h4.47c1.86,0,5.75-2.33,5.92-2.85s-2.32-3.14-4.76-3.37c-1.67-.16-6.81,5.25-9.89,8.68h-9.67l6.49-5.62-12.64,7.3H195.6l-.93,1.08-20.83-.22a.87.87,0,0,1-.22-1.72,60.28,60.28,0,0,0,7.11-2.24c3.43-1.51,33.51-20.91,72.6-24.16,21.61-1.8,43.13.21,58.12,2.53a2.67,2.67,0,0,1,2.18,3.24l-3.55,15.07,7.1-15.68a2.18,2.18,0,0,1,2.4-1.25c4.28.79,7.61,1.52,9.71,2.07,9.23,2.44,9.93,3.36,8.45,6.41A17.66,17.66,0,0,1,333.6,235a25.62,25.62,0,0,0,7.84-6.49s36.11,8.93,35.68,9.76S337,239.67,331,241.33s-9.58,7.19-9.58,7.19,27.06-3.59,49-2.6,29.15,2.67,31.3,2.2a10,10,0,0,0,4.18-2.55,13.27,13.27,0,0,0,6,.58,7,7,0,0,0,4.06-3.14S335.91,215.37,292,212.41ZM395.3,245.66c-5.35-.93-39.93-4-39.93-4,10.45-.76,46.4,1.91,46.4,1.91S400.64,246.59,395.3,245.66Z"/><path class="cls-10" d="M305.94,178.49c28.41-.86,57.43,16.76,67.94,40.46a49.55,49.55,0,0,1,2.23,6.07c3.08.9,6.07,1.78,8.93,2.65l7.55-3.59-4.41-9.53-10.35-1.45q-1.33-2.35-2.85-4.62l5.33-6.86-7.55-8.11-9.11,1.83q-1.9-1.76-3.93-3.4l1.55-8.69-9.86-6.06-7,4.77q-2.65-1.36-5.41-2.56l-2.69-9.66L325,166.45l-3.78,7.34c-1.78-.35-3.57-.66-5.38-.91l-7-9.56-11.84,0,.24,9.2c-2,.2-4,.49-5.87.85L280,165.26l-10.84,4,5.15,10q-2.3,1.2-4.43,2.6L255,176.62l-8,7.94,10.22,9.18a43.5,43.5,0,0,0-3,4.75l-16.7-.51-2.95,11.35,1.41.6a166.91,166.91,0,0,1,25.42-3.12C267.15,190.32,284.21,179.15,305.94,178.49Z"/><path class="cls-11" d="M306.76,208.82a21.24,21.24,0,0,1,9.55-3,30.35,30.35,0,0,1,24.14,9.72c7.74,1.85,15.47,3.86,22.89,5.9-.15-.38-.29-.76-.46-1.14-8-18.66-30.86-32.36-52.94-31.26-14.4.72-25.76,7.52-31,17.6q6.51.15,13.46.61C296.84,207.52,301.68,208.08,306.76,208.82Z"/><path class="cls-12" d="M208,231.5s26.75-12,54-12a427.79,427.79,0,0,1,48.75,2.75l-3.87,11Z"/><path class="cls-13" d="M317.34,226l-3.3,8.13s15.92.62,18.42-.75,4-4.42,3.5-5.42c-.42-.77-10.58-2.83-15.32-3.75A3,3,0,0,0,317.34,226Z"/></g><g id="TEXTS"><path class="cls-14" d="M164.69,324.64a8.33,8.33,0,0,1,1.51-.13,2.46,2.46,0,0,1,1.75.5,1.49,1.49,0,0,1,.48,1.15,1.6,1.6,0,0,1-1.14,1.55v0a1.49,1.49,0,0,1,.89,1.22,9.57,9.57,0,0,0,.47,1.67h-.81a7.7,7.7,0,0,1-.41-1.45c-.18-.84-.5-1.15-1.21-1.18h-.74v2.63h-.79Zm.79,2.76h.8c.84,0,1.37-.45,1.37-1.15s-.57-1.12-1.4-1.13a3,3,0,0,0-.77.07Z"/><path class="cls-14" d="M172.68,327.78h-2.36V330H173v.66h-3.41v-6.07h3.27v.66h-2.49v1.91h2.36Z"/><path class="cls-14" d="M173.86,329.67a2.72,2.72,0,0,0,1.4.4c.8,0,1.27-.42,1.27-1s-.32-.89-1.14-1.2c-1-.35-1.6-.87-1.6-1.72a1.74,1.74,0,0,1,2-1.65,2.67,2.67,0,0,1,1.34.3l-.22.64a2.38,2.38,0,0,0-1.15-.29c-.83,0-1.14.49-1.14.91s.37.84,1.2,1.17c1,.39,1.55.89,1.55,1.78s-.69,1.75-2.12,1.75a3.07,3.07,0,0,1-1.55-.39Z"/><path class="cls-14" d="M178.4,324.63a9.48,9.48,0,0,1,1.51-.12,2.47,2.47,0,0,1,1.7.51,1.65,1.65,0,0,1,.53,1.27,1.75,1.75,0,0,1-.47,1.29,2.47,2.47,0,0,1-1.85.67,3,3,0,0,1-.63-.05v2.43h-.79Zm.79,2.93a2.84,2.84,0,0,0,.64.06c.95,0,1.52-.46,1.52-1.3s-.56-1.18-1.43-1.18a3,3,0,0,0-.73.06Z"/><path class="cls-14" d="M188.38,327.53c0,2.09-1.27,3.2-2.82,3.2a2.78,2.78,0,0,1-2.73-3.08,2.89,2.89,0,0,1,2.82-3.19A2.77,2.77,0,0,1,188.38,327.53Zm-4.71.1c0,1.3.7,2.46,1.93,2.46s2-1.15,2-2.52c0-1.21-.63-2.47-1.94-2.47S183.67,326.3,183.67,327.63Z"/><path class="cls-14" d="M189.39,330.63v-6.07h.86l1.94,3.07a17.49,17.49,0,0,1,1.09,2h0c-.07-.81-.09-1.55-.09-2.49v-2.54H194v6.07h-.8l-1.92-3.08a19.06,19.06,0,0,1-1.14-2h0c0,.77.06,1.5.06,2.5v2.6Z"/><path class="cls-14" d="M195.2,329.67a2.79,2.79,0,0,0,1.41.4c.8,0,1.27-.42,1.27-1s-.33-.89-1.15-1.2c-1-.35-1.6-.87-1.6-1.72a1.75,1.75,0,0,1,2-1.65,2.67,2.67,0,0,1,1.34.3l-.22.64a2.38,2.38,0,0,0-1.15-.29c-.83,0-1.15.49-1.15.91s.37.84,1.21,1.17c1,.39,1.55.89,1.55,1.78s-.69,1.75-2.12,1.75a3.07,3.07,0,0,1-1.55-.39Z"/><path class="cls-14" d="M200.73,328.72l-.63,1.91h-.81l2.06-6.07h1l2.07,6.07h-.84l-.65-1.91Zm2-.61-.59-1.75c-.14-.4-.23-.76-.32-1.11h0c-.09.36-.19.73-.3,1.1l-.6,1.76Z"/><path class="cls-14" d="M205.26,324.64a7.68,7.68,0,0,1,1.43-.13,2.46,2.46,0,0,1,1.66.45,1.25,1.25,0,0,1,.51,1.07,1.45,1.45,0,0,1-1,1.33v0a1.55,1.55,0,0,1,1.25,1.52,1.6,1.6,0,0,1-.51,1.21,3,3,0,0,1-2.1.57,10.31,10.31,0,0,1-1.21-.07Zm.78,2.48h.71c.83,0,1.32-.43,1.32-1s-.54-1-1.34-1a3.23,3.23,0,0,0-.69.05Zm0,2.91a3.78,3.78,0,0,0,.66,0c.81,0,1.56-.3,1.56-1.18s-.72-1.17-1.57-1.17H206Z"/><path class="cls-14" d="M210.92,324.56v6.07h-.78v-6.07Z"/><path class="cls-14" d="M212.29,324.56h.78V330h2.59v.66h-3.37Z"/><path class="cls-14" d="M217.32,324.56v6.07h-.79v-6.07Z"/><path class="cls-14" d="M218.69,324.64a11.31,11.31,0,0,1,1.66-.13,3.5,3.5,0,0,1,2.46.76,2.8,2.8,0,0,1,.85,2.18,3.2,3.2,0,0,1-.87,2.36,3.72,3.72,0,0,1-2.68.87,13.84,13.84,0,0,1-1.42-.07Zm.78,5.37a5.82,5.82,0,0,0,.79,0,2.33,2.33,0,0,0,2.58-2.57,2.16,2.16,0,0,0-2.45-2.34,4.14,4.14,0,0,0-.92.08Z"/><path class="cls-14" d="M225.53,328.72l-.63,1.91h-.81l2.07-6.07h.94l2.07,6.07h-.84l-.64-1.91Zm2-.61-.59-1.75c-.14-.4-.22-.76-.32-1.11h0c-.09.36-.19.73-.31,1.1l-.59,1.76Z"/><path class="cls-14" d="M230.06,324.64a11.57,11.57,0,0,1,1.67-.13,3.49,3.49,0,0,1,2.45.76,2.81,2.81,0,0,1,.86,2.18,3.24,3.24,0,0,1-.87,2.36,3.75,3.75,0,0,1-2.69.87,14.16,14.16,0,0,1-1.42-.07Zm.78,5.37a6,6,0,0,0,.8,0,2.33,2.33,0,0,0,2.58-2.57,2.16,2.16,0,0,0-2.46-2.34,4.21,4.21,0,0,0-.92.08Z"/><path class="cls-14" d="M235.21,331.73a12.74,12.74,0,0,0,.54-2.15l.88-.09a11.14,11.14,0,0,1-.85,2.19Z"/><path class="cls-14" d="M243.76,330.43a3.94,3.94,0,0,1-1.6.29,2.84,2.84,0,0,1-3-3.07,3,3,0,0,1,3.17-3.19,3.26,3.26,0,0,1,1.44.27l-.19.64a2.92,2.92,0,0,0-1.22-.25,2.25,2.25,0,0,0-2.37,2.5,2.2,2.2,0,0,0,2.33,2.44,3.2,3.2,0,0,0,1.28-.25Z"/><path class="cls-14" d="M245.76,328.72l-.63,1.91h-.81l2.06-6.07h.94l2.07,6.07h-.83l-.65-1.91Zm2-.61-.6-1.75c-.13-.4-.22-.76-.31-1.11h0c-.09.36-.19.73-.31,1.1l-.59,1.76Z"/><path class="cls-14" d="M250.28,324.56h.79V330h2.59v.66h-3.38Z"/><path class="cls-14" d="M255.32,324.56v6.07h-.79v-6.07Z"/><path class="cls-14" d="M256.68,324.64a11.57,11.57,0,0,1,1.67-.13,3.53,3.53,0,0,1,2.46.76,2.8,2.8,0,0,1,.85,2.18,3.24,3.24,0,0,1-.87,2.36,3.75,3.75,0,0,1-2.69.87,14.16,14.16,0,0,1-1.42-.07Zm.79,5.37a5.72,5.72,0,0,0,.79,0,2.33,2.33,0,0,0,2.58-2.57,2.16,2.16,0,0,0-2.46-2.34,4,4,0,0,0-.91.08Z"/><path class="cls-14" d="M263.53,328.72l-.63,1.91h-.81l2.06-6.07h1l2.07,6.07h-.84l-.65-1.91Zm2-.61-.59-1.75c-.14-.4-.23-.76-.32-1.11h0c-.09.36-.18.73-.3,1.1l-.6,1.76Z"/><path class="cls-14" d="M268.06,324.64a11.42,11.42,0,0,1,1.66-.13,3.5,3.5,0,0,1,2.46.76,2.81,2.81,0,0,1,.86,2.18,3.21,3.21,0,0,1-.88,2.36,3.7,3.7,0,0,1-2.68.87,13.84,13.84,0,0,1-1.42-.07Zm.78,5.37a5.91,5.91,0,0,0,.79,0,2.33,2.33,0,0,0,2.59-2.57,2.16,2.16,0,0,0-2.46-2.34,4.14,4.14,0,0,0-.92.08Z"/><path class="cls-14" d="M276.9,330.63v-2.58L275,324.56h.89l.86,1.67c.23.46.41.83.6,1.26h0c.17-.4.38-.8.61-1.26l.87-1.67h.89l-2,3.48v2.59Z"/><path class="cls-14" d="M286.56,330.43a3.9,3.9,0,0,1-1.6.29,2.84,2.84,0,0,1-3-3.07,3,3,0,0,1,3.17-3.19,3.18,3.18,0,0,1,1.44.27l-.19.64a2.88,2.88,0,0,0-1.22-.25,2.26,2.26,0,0,0-2.37,2.5,2.21,2.21,0,0,0,2.33,2.44,3.17,3.17,0,0,0,1.28-.25Z"/><path class="cls-14" d="M292.54,327.53c0,2.09-1.27,3.2-2.82,3.2a2.79,2.79,0,0,1-2.73-3.08,2.89,2.89,0,0,1,2.82-3.19A2.76,2.76,0,0,1,292.54,327.53Zm-4.71.1c0,1.3.7,2.46,1.94,2.46s1.94-1.15,1.94-2.52c0-1.21-.63-2.47-1.93-2.47S287.83,326.3,287.83,327.63Z"/><path class="cls-14" d="M298.67,328c-.05-.84-.1-1.86-.09-2.62h0c-.21.71-.46,1.47-.76,2.31l-1.08,2.94h-.59l-1-2.89c-.29-.85-.53-1.64-.7-2.36h0c0,.76-.06,1.78-.12,2.69l-.16,2.6h-.75l.43-6.07h1l1,2.93c.25.75.46,1.42.61,2.05h0c.15-.61.37-1.28.64-2.05l1.08-2.93h1l.38,6.07h-.77Z"/><path class="cls-14" d="M300.79,324.63a9.34,9.34,0,0,1,1.5-.12A2.48,2.48,0,0,1,304,325a1.65,1.65,0,0,1,.53,1.27,1.79,1.79,0,0,1-.47,1.29,2.5,2.5,0,0,1-1.86.67,3,3,0,0,1-.63-.05v2.43h-.78Zm.78,2.93a3,3,0,0,0,.65.06c.95,0,1.52-.46,1.52-1.3s-.56-1.18-1.43-1.18a3.16,3.16,0,0,0-.74.06Z"/><path class="cls-14" d="M305.58,324.64a8.13,8.13,0,0,1,1.5-.13,2.5,2.5,0,0,1,1.76.5,1.52,1.52,0,0,1,.47,1.15,1.6,1.6,0,0,1-1.14,1.55v0a1.49,1.49,0,0,1,.89,1.22,10.6,10.6,0,0,0,.47,1.67h-.81a8,8,0,0,1-.4-1.45c-.18-.84-.51-1.15-1.22-1.18h-.74v2.63h-.78Zm.78,2.76h.8c.84,0,1.37-.45,1.37-1.15s-.57-1.12-1.39-1.13a3.12,3.12,0,0,0-.78.07Z"/><path class="cls-14" d="M315.63,327.53c0,2.09-1.27,3.2-2.81,3.2a2.78,2.78,0,0,1-2.73-3.08,2.89,2.89,0,0,1,2.82-3.19A2.76,2.76,0,0,1,315.63,327.53Zm-4.71.1c0,1.3.71,2.46,1.94,2.46s1.94-1.15,1.94-2.52c0-1.21-.63-2.47-1.93-2.47S310.92,326.3,310.92,327.63Z"/><path class="cls-14" d="M321.76,328c0-.84-.1-1.86-.09-2.62h0c-.21.71-.46,1.47-.77,2.31l-1.07,2.94h-.6l-1-2.89c-.28-.85-.53-1.64-.7-2.36h0c0,.76-.06,1.78-.11,2.69l-.17,2.6h-.74l.42-6.07h1l1,2.93c.26.75.46,1.42.62,2.05h0c.16-.61.37-1.28.64-2.05l1.08-2.93h1l.38,6.07h-.76Z"/><path class="cls-14" d="M324.67,324.56v6.07h-.79v-6.07Z"/><path class="cls-14" d="M325.93,329.67a2.72,2.72,0,0,0,1.4.4c.8,0,1.27-.42,1.27-1s-.32-.89-1.14-1.2c-1-.35-1.6-.87-1.6-1.72a1.74,1.74,0,0,1,2-1.65,2.67,2.67,0,0,1,1.34.3l-.22.64a2.35,2.35,0,0,0-1.15-.29c-.83,0-1.14.49-1.14.91s.37.84,1.2,1.17c1,.39,1.55.89,1.55,1.78s-.69,1.75-2.12,1.75a3.07,3.07,0,0,1-1.55-.39Z"/><path class="cls-14" d="M335.66,327.53c0,2.09-1.27,3.2-2.82,3.2a2.79,2.79,0,0,1-2.73-3.08,2.89,2.89,0,0,1,2.82-3.19A2.76,2.76,0,0,1,335.66,327.53Zm-4.71.1c0,1.3.7,2.46,1.93,2.46s1.95-1.15,1.95-2.52c0-1.21-.63-2.47-1.94-2.47S331,326.3,331,327.63Z"/><path class="cls-15" d="M94.21,273v32.07H90.07V273Z"/><path class="cls-15" d="M101.45,305.09V273H106l10.28,16.23A90.49,90.49,0,0,1,122,299.67l.09-.05c-.38-4.28-.47-8.19-.47-13.18V273h3.9v32.07h-4.19l-10.18-16.27a102.13,102.13,0,0,1-6-10.71l-.14.05c.23,4,.33,7.9.33,13.23v13.7Z"/><path class="cls-15" d="M132.76,273.45a58.24,58.24,0,0,1,8.81-.67c6,0,10.18,1.38,13,4s4.52,6.33,4.52,11.51-1.62,9.52-4.61,12.47-7.95,4.62-14.19,4.62a66.46,66.46,0,0,1-7.52-.38Zm4.14,28.36a26.27,26.27,0,0,0,4.19.24c8.86,0,13.66-4.95,13.66-13.61.05-7.57-4.23-12.38-13-12.38a23.47,23.47,0,0,0-4.86.43Z"/><path class="cls-15" d="M168.6,273v19c0,7.18,3.19,10.23,7.48,10.23,4.75,0,7.8-3.14,7.8-10.23V273h4.19v18.7c0,9.85-5.19,13.9-12.14,13.9-6.57,0-11.51-3.76-11.51-13.71V273Z"/><path class="cls-15" d="M194.69,300.05a14.65,14.65,0,0,0,7.42,2.09c4.24,0,6.71-2.23,6.71-5.47,0-3-1.71-4.71-6-6.38-5.24-1.85-8.48-4.57-8.48-9.09,0-5,4.15-8.71,10.38-8.71a14.58,14.58,0,0,1,7.09,1.57l-1.14,3.38a12.81,12.81,0,0,0-6.09-1.52c-4.38,0-6,2.62-6,4.81,0,3,1.95,4.47,6.38,6.18,5.43,2.1,8.19,4.71,8.19,9.43,0,5-3.67,9.23-11.24,9.23a16.47,16.47,0,0,1-8.18-2.05Z"/><path class="cls-15" d="M235.33,290.05H222.86v11.57h13.9v3.47h-18V273H236v3.47H222.86v10.14h12.47Z"/><path class="cls-15" d="M242.14,273.45a42.91,42.91,0,0,1,8-.67c4.42,0,7.28.81,9.28,2.62a8,8,0,0,1,2.52,6.09,8.42,8.42,0,0,1-6,8.18v.15c2.48.85,4,3.14,4.72,6.47,1,4.47,1.81,7.57,2.47,8.8h-4.28c-.53-.9-1.24-3.66-2.14-7.66-1-4.43-2.67-6.09-6.43-6.23h-3.9v13.89h-4.14Zm4.14,14.61h4.23c4.43,0,7.24-2.43,7.24-6.1,0-4.14-3-5.95-7.38-6a17.05,17.05,0,0,0-4.09.38Z"/><path class="cls-16" d="M276.29,305.09,265.82,273h4.47l5,15.8c1.38,4.33,2.57,8.23,3.43,12h.09c.91-3.71,2.24-7.76,3.67-11.94L287.9,273h4.43l-11.47,32.07Z"/><path class="cls-16" d="M300,273v32.07h-4.14V273Z"/><path class="cls-16" d="M329.6,304.05a20.63,20.63,0,0,1-8.48,1.52c-9,0-15.84-5.71-15.84-16.23,0-10,6.8-16.85,16.75-16.85a17.15,17.15,0,0,1,7.61,1.43l-1,3.38a15.08,15.08,0,0,0-6.47-1.33c-7.52,0-12.51,4.8-12.51,13.23,0,7.85,4.52,12.9,12.32,12.9a16.59,16.59,0,0,0,6.76-1.34Z"/><path class="cls-16" d="M351.4,290.05H338.93v11.57h13.89v3.47h-18V273h17.32v3.47H338.93v10.14H351.4Z"/><path class="cls-16" d="M368.29,273h17.28v3.47H372.43v10.66h12.14v3.43H372.43v14.51h-4.14Z"/><path class="cls-16" d="M385.71,302.62a2.82,2.82,0,0,1,2.86-3,3,3,0,0,1-.05,6A2.81,2.81,0,0,1,385.71,302.62Z"/><path class="cls-16" d="M396.71,273h4.14v28.6h13.7v3.47H396.71Z"/></g></svg>