<svg xmlns="http://www.w3.org/2000/svg" xmlns:xlink="http://www.w3.org/1999/xlink" viewBox="0 0 337.58 158.82"><defs><style>.cls-1,.cls-2,.cls-3,.cls-4{stroke:#d16848;stroke-miterlimit:10;stroke-width:0.5px;}.cls-1{fill:url(#Degradado_sin_nombre_2);}.cls-2{fill:url(#Degradado_sin_nombre_2-2);}.cls-3{fill:url(#Degradado_sin_nombre_2-3);}.cls-4{fill:url(#Degradado_sin_nombre_2-4);}.cls-5{fill:url(#Degradado_sin_nombre_7);}.cls-6{fill:url(#Degradado_sin_nombre_3);}.cls-7{fill:url(#Degradado_sin_nombre_9);}.cls-8{fill:url(#Degradado_sin_nombre_9-2);}.cls-9{fill:url(#Degradado_sin_nombre_2-5);}.cls-10{fill:url(#Degradado_sin_nombre_2-6);}.cls-11{fill:url(#Degradado_sin_nombre_2-7);}.cls-12{fill:url(#Degradado_sin_nombre_2-8);}.cls-13{fill:url(#Degradado_sin_nombre_2-9);}.cls-14{fill:url(#Degradado_sin_nombre_3-2);}.cls-15{fill:url(#Degradado_sin_nombre_3-9);}</style><linearGradient id="Degradado_sin_nombre_2" x1="122.63" y1="78.09" x2="247.61" y2="78.09" gradientUnits="userSpaceOnUse"><stop offset="0" stop-color="#fff8a5"/><stop offset="0.03" stop-color="#fde67e"/><stop offset="0.04" stop-color="#f0d36f"/><stop offset="0.08" stop-color="#cb9a42"/><stop offset="0.11" stop-color="#b47727"/><stop offset="0.13" stop-color="#ab6a1c"/><stop offset="0.16" stop-color="#b67a29"/><stop offset="0.23" stop-color="#d2a44a"/><stop offset="0.32" stop-color="#fde67e"/><stop offset="0.39" stop-color="#fef298"/><stop offset="0.44" stop-color="#fff8a5"/><stop offset="0.69" stop-color="#fde67e"/><stop offset="0.7" stop-color="#f5da75"/><stop offset="0.75" stop-color="#d5ab4f"/><stop offset="0.79" stop-color="#be8834"/><stop offset="0.82" stop-color="#b07323"/><stop offset="0.85" stop-color="#ab6b1d"/><stop offset="0.87" stop-color="#ad6f20"/><stop offset="0.89" stop-color="#b57a29"/><stop offset="0.91" stop-color="#c28d38"/><stop offset="0.93" stop-color="#d3a74c"/><stop offset="0.95" stop-color="#eac967"/><stop offset="0.96" stop-color="#fde67e"/><stop offset="0.98" stop-color="#fef093"/><stop offset="1" stop-color="#fff7a0"/></linearGradient><linearGradient id="Degradado_sin_nombre_2-2" x1="-4.73" y1="98.87" x2="337.49" y2="98.87" xlink:href="#Degradado_sin_nombre_2"/><linearGradient id="Degradado_sin_nombre_2-3" x1="659.75" y1="98.87" x2="1001.98" y2="98.87" gradientTransform="matrix(-1, 0, 0, 1, 1006.45, 0)" xlink:href="#Degradado_sin_nombre_2"/><linearGradient id="Degradado_sin_nombre_2-4" x1="-4.73" y1="73.34" x2="337.5" y2="73.34" xlink:href="#Degradado_sin_nombre_2"/><radialGradient id="Degradado_sin_nombre_7" cx="543.73" cy="395.47" r="61.02" gradientTransform="translate(467.63 -589.08) rotate(74.8)" xlink:href="#Degradado_sin_nombre_2"/><linearGradient id="Degradado_sin_nombre_3" x1="527.67" y1="387.51" x2="611.58" y2="387.51" gradientTransform="translate(467.63 -589.08) rotate(74.8)" gradientUnits="userSpaceOnUse"><stop offset="0" stop-color="#fbfbfb"/><stop offset="0.3" stop-color="#c6c6c6"/><stop offset="0.32" stop-color="#bcbcbc"/><stop offset="0.41" stop-color="#a0a0a0"/><stop offset="0.48" stop-color="#8f8f8f"/><stop offset="0.53" stop-color="#898989"/><stop offset="0.59" stop-color="#919191"/><stop offset="0.68" stop-color="#a7a7a7"/><stop offset="0.79" stop-color="#cbcbcb"/><stop offset="0.83" stop-color="#dcdcdc"/><stop offset="1" stop-color="#fbfbfb"/></linearGradient><linearGradient id="Degradado_sin_nombre_9" x1="178.16" y1="54.05" x2="178.16" y2="66.08" gradientUnits="userSpaceOnUse"><stop offset="0" stop-color="#979dad"/><stop offset="0.17" stop-color="#979dad" stop-opacity="0.86"/><stop offset="0.54" stop-color="#979dad" stop-opacity="0.5"/><stop offset="1" stop-color="#979dad" stop-opacity="0"/></linearGradient><linearGradient id="Degradado_sin_nombre_9-2" x1="243.84" y1="60.55" x2="243.84" y2="68.43" xlink:href="#Degradado_sin_nombre_9"/><linearGradient id="Degradado_sin_nombre_2-5" x1="4.07" y1="156.51" x2="234.46" y2="156.51" xlink:href="#Degradado_sin_nombre_2"/><linearGradient id="Degradado_sin_nombre_2-6" x1="4.07" y1="149.46" x2="234.46" y2="149.46" xlink:href="#Degradado_sin_nombre_2"/><linearGradient id="Degradado_sin_nombre_2-7" x1="834.35" y1="149.46" x2="1089.87" y2="149.46" gradientTransform="matrix(-1, 0, 0, 1, 1002.6, 0)" xlink:href="#Degradado_sin_nombre_2"/><linearGradient id="Degradado_sin_nombre_2-8" x1="834.35" y1="156.51" x2="1089.87" y2="156.51" gradientTransform="matrix(-1, 0, 0, 1, 1002.6, 0)" xlink:href="#Degradado_sin_nombre_2"/><linearGradient id="Degradado_sin_nombre_2-9" x1="96.05" y1="164.72" x2="96.05" y2="104.42" xlink:href="#Degradado_sin_nombre_2"/><linearGradient id="Degradado_sin_nombre_3-2" x1="259.68" y1="164.72" x2="259.68" y2="104.42" gradientTransform="matrix(1, 0, 0, 1, 0, 0)" xlink:href="#Degradado_sin_nombre_3"/><linearGradient id="Degradado_sin_nombre_3-9" x1="166.02" y1="138.76" x2="166.02" y2="212.96" gradientTransform="matrix(1, 0, 0, 1, 0, 0)" xlink:href="#Degradado_sin_nombre_3"/></defs><g id="Capa_2" data-name="Capa 2"><g id="TEXTS"><path class="cls-1" d="M227.35,76.2c-11.62.29-104.72,3.49-104.72,3.49l.62,1.52h13.19l-12.86.8.21.52s61.16-.34,65.69-1.1,5.34-1.68,5.34-1.68,43.58-1.1,52.79-6.1A98.37,98.37,0,0,1,227.35,76.2Z"/><path class="cls-2" d="M36.56,94.27c-11.15,2.67-15.15,10.47-15.15,10.47s5.92-8.5,21.54-9.26S101.67,94,101.67,94,47.72,91.59,36.56,94.27Z"/><path class="cls-3" d="M305.4,94.27c11.15,2.67,15.16,10.47,15.16,10.47s-5.93-8.5-21.55-9.26S240.3,94,240.3,94,294.25,91.59,305.4,94.27Z"/><path class="cls-4" d="M210.79,49.08c-43.9-3-64.2,4.36-80.23,10.11s-30,17.68-44.69,20-54,1.63-69.5,6.27c-6,1.79-9.87,3.15-12.11,4A2.18,2.18,0,0,0,3.2,92.64s8.28-5,26.48-7.32a204.66,204.66,0,0,1,34.24-1.39s-35.37,1.8-45.65,5.86C12.82,92,9.59,93.28,7.76,94.49A2.74,2.74,0,0,0,7,98.27s9.45-7.61,25.89-9.06c13.76-1.21,60-1.82,74.78-2a8.47,8.47,0,0,0,6.91-3.71c1.72-2.52,4-5.55,5.61-6.33h4.47c1.86,0,5.75-2.32,5.92-2.85s-2.32-3.14-4.76-3.37c-1.67-.15-6.81,5.25-9.9,8.69h-9.66L112.7,74l-12.64,7.3h14.33l-.93,1.08L92.62,82.2a.87.87,0,0,1-.21-1.72,60.28,60.28,0,0,0,7.11-2.24C103,76.73,133,57.33,172.12,54.08c21.61-1.8,43.13.21,58.12,2.53a2.65,2.65,0,0,1,2.17,3.24l-3.54,15.06L236,59.23a2.2,2.2,0,0,1,2.4-1.25c4.28.79,7.61,1.52,9.71,2.08,9.23,2.44,9.93,3.35,8.45,6.4a17.62,17.62,0,0,1-4.14,5.23,25.81,25.81,0,0,0,7.84-6.49s36.11,8.93,35.68,9.75-40.08,1.4-46.09,3-9.58,7.19-9.58,7.19,27.06-3.59,49-2.6,29.15,2.67,31.3,2.21a10.13,10.13,0,0,0,4.18-2.56,13.24,13.24,0,0,0,6,.58,7,7,0,0,0,4.07-3.13S254.7,52,210.79,49.08ZM314.08,82.34c-5.34-.93-39.92-4-39.92-4,10.45-.75,46.4,1.92,46.4,1.92S319.43,83.27,314.08,82.34Z"/><path class="cls-5" d="M224.73,15.17c28.41-.86,57.43,16.75,67.94,40.46a49,49,0,0,1,2.23,6.07c3.08.89,6.07,1.78,8.93,2.64l7.55-3.58L307,51.23l-10.35-1.45q-1.33-2.37-2.86-4.62l5.34-6.86-7.55-8.12L282.43,32q-1.89-1.76-3.92-3.41l1.55-8.69-9.86-6.05-7,4.77q-2.65-1.37-5.41-2.57l-2.69-9.65-11.39-3.3L240,10.47c-1.78-.36-3.58-.67-5.38-.91l-7-9.56L215.73,0,216,9.22q-3,.31-5.87.86L198.77,1.94l-10.84,4,5.15,10c-1.54.81-3,1.67-4.43,2.6l-14.84-5.2-8,7.94L176,30.42a42.56,42.56,0,0,0-3,4.75l-16.7-.51L153.4,46l1.41.6a168,168,0,0,1,25.42-3.12C185.94,27,203,15.83,224.73,15.17Z"/><path class="cls-6" d="M225.54,45.5a21.2,21.2,0,0,1,9.56-3,30.32,30.32,0,0,1,24.14,9.72c7.74,1.84,15.47,3.86,22.89,5.89-.15-.38-.29-.76-.46-1.13-8-18.67-30.86-32.37-53-31.26-14.39.72-25.75,7.51-31,17.6q6.52.15,13.46.61C215.63,44.2,220.47,44.75,225.54,45.5Z"/><path class="cls-7" d="M126.79,68.18s26.75-12,54-12a427.79,427.79,0,0,1,48.75,2.75l-3.88,11Z"/><path class="cls-8" d="M236.12,62.72l-3.29,8.12s15.92.63,18.42-.75,4-4.41,3.5-5.41c-.42-.77-10.58-2.83-15.32-3.75A3,3,0,0,0,236.12,62.72Z"/><polygon class="cls-9" points="48.58 158.2 0 156.51 48.58 154.83 48.58 158.2"/><polygon class="cls-10" points="48.58 151.14 0 149.46 48.58 147.77 48.58 151.14"/><polygon class="cls-11" points="283.7 151.14 337.58 149.46 283.7 147.77 283.7 151.14"/><polygon class="cls-12" points="283.7 158.2 337.58 156.51 283.7 154.83 283.7 158.2"/><path class="cls-13" d="M13.71,108.66v32.08H9.57V108.66Z"/><path class="cls-13" d="M20.94,140.74V108.66h4.52l10.28,16.23a90.64,90.64,0,0,1,5.76,10.42l.1-.05c-.38-4.28-.48-8.18-.48-13.18V108.66H45v32.08H40.83L30.65,124.46a102.13,102.13,0,0,1-6-10.71l-.14,0c.24,4,.33,7.9.33,13.23v13.71Z"/><path class="cls-13" d="M52.26,109.09a59.32,59.32,0,0,1,8.8-.67c6,0,10.19,1.38,13,4s4.52,6.33,4.52,11.52S77,133.45,74,136.4,66,141,59.78,141a66.33,66.33,0,0,1-7.52-.38Zm4.14,28.36a26.19,26.19,0,0,0,4.19.24c8.85,0,13.66-4.95,13.66-13.61,0-7.57-4.24-12.38-13-12.38a23.29,23.29,0,0,0-4.85.43Z"/><path class="cls-13" d="M88.1,108.66v19c0,7.18,3.19,10.23,7.47,10.23,4.76,0,7.8-3.14,7.8-10.23v-19h4.19v18.7c0,9.85-5.18,13.9-12.13,13.9-6.57,0-11.52-3.76-11.52-13.71V108.66Z"/><path class="cls-13" d="M114.18,135.69a14.71,14.71,0,0,0,7.42,2.09c4.24,0,6.71-2.23,6.71-5.47,0-3-1.71-4.71-6-6.38-5.23-1.85-8.47-4.57-8.47-9.09,0-5,4.14-8.71,10.37-8.71a14.71,14.71,0,0,1,7.1,1.57l-1.15,3.38a12.77,12.77,0,0,0-6.09-1.52c-4.38,0-6,2.62-6,4.81,0,3,2,4.47,6.37,6.18,5.43,2.1,8.19,4.72,8.19,9.43,0,5-3.66,9.23-11.23,9.23a16.51,16.51,0,0,1-8.19-2.05Z"/><path class="cls-13" d="M154.83,125.7H142.36v11.56h13.89v3.48h-18V108.66h17.32v3.47H142.36v10.14h12.47Z"/><path class="cls-13" d="M161.63,109.09a43,43,0,0,1,8-.67c4.43,0,7.28.81,9.28,2.62a8,8,0,0,1,2.52,6.09,8.43,8.43,0,0,1-6,8.19v.14c2.47.85,3.95,3.14,4.71,6.47,1,4.47,1.81,7.57,2.48,8.81h-4.29c-.52-.91-1.23-3.67-2.14-7.67-.95-4.42-2.66-6.09-6.42-6.23h-3.91v13.9h-4.14Zm4.14,14.61H170c4.42,0,7.23-2.43,7.23-6.09,0-4.15-3-6-7.37-6a17.16,17.16,0,0,0-4.1.38Z"/><path class="cls-14" d="M195.78,140.74l-10.47-32.08h4.48l5,15.8c1.38,4.33,2.57,8.23,3.42,12h.1c.9-3.71,2.23-7.76,3.66-11.94l5.43-15.85h4.42l-11.47,32.08Z"/><path class="cls-14" d="M219.44,108.66v32.08H215.3V108.66Z"/><path class="cls-14" d="M249.09,139.69a20.58,20.58,0,0,1-8.47,1.52c-9,0-15.85-5.71-15.85-16.23,0-10,6.81-16.85,16.75-16.85a17.24,17.24,0,0,1,7.62,1.43l-1,3.38a15.11,15.11,0,0,0-6.47-1.33c-7.52,0-12.52,4.81-12.52,13.23,0,7.85,4.52,12.9,12.33,12.9a16.5,16.5,0,0,0,6.75-1.34Z"/><path class="cls-14" d="M270.89,125.7H258.42v11.56h13.9v3.48h-18V108.66H271.6v3.47H258.42v10.14h12.47Z"/><path class="cls-14" d="M287.79,108.66h17.27v3.47H291.93v10.66h12.13v3.43H291.93v14.52h-4.14Z"/><path class="cls-14" d="M305.21,138.26a2.81,2.81,0,0,1,2.85-3,3,3,0,1,1-2.85,3Z"/><path class="cls-14" d="M316.2,108.66h4.14v28.6h13.71v3.48H316.2Z"/><path class="cls-15" d="M51.91,148.46a9.93,9.93,0,0,1,2-.18,3.13,3.13,0,0,1,2.34.72,2.48,2.48,0,0,1-.89,3.94v0a2.21,2.21,0,0,1,1.19,1.79,14.93,14.93,0,0,0,.62,2.44H56.1a13,13,0,0,1-.54-2.12c-.24-1.23-.67-1.68-1.62-1.73H53v3.85h-1Zm1,4H54a1.65,1.65,0,0,0,1.83-1.69c0-1.14-.76-1.64-1.86-1.65a4.18,4.18,0,0,0-1,.1Z"/><path class="cls-15" d="M62.56,153.05H59.42v3.2h3.51v1H58.37v-8.87h4.38v1H59.42v2.8h3.14Z"/><path class="cls-15" d="M64.14,155.81a3.43,3.43,0,0,0,1.87.58,1.51,1.51,0,0,0,1.7-1.51c0-.83-.44-1.3-1.53-1.77-1.32-.51-2.14-1.26-2.14-2.51a2.41,2.41,0,0,1,2.62-2.4,3.46,3.46,0,0,1,1.79.43l-.29.93a3.05,3.05,0,0,0-1.53-.42,1.36,1.36,0,0,0-1.53,1.33c0,.83.49,1.24,1.61,1.71,1.37.58,2.07,1.3,2.07,2.61a2.54,2.54,0,0,1-2.84,2.55,3.84,3.84,0,0,1-2.06-.57Z"/><path class="cls-15" d="M70.21,148.45a10.32,10.32,0,0,1,2-.17,3.14,3.14,0,0,1,2.27.73,2.48,2.48,0,0,1,.71,1.86,2.74,2.74,0,0,1-.62,1.89,3.2,3.2,0,0,1-2.48,1,3.11,3.11,0,0,1-.84-.08v3.56h-1Zm1,4.27a3.1,3.1,0,0,0,.87.09,1.79,1.79,0,0,0,2-1.89c0-1.17-.76-1.74-1.91-1.74a4.21,4.21,0,0,0-1,.09Z"/><path class="cls-15" d="M83.52,152.68c0,3-1.7,4.67-3.76,4.67s-3.64-1.82-3.64-4.5,1.6-4.65,3.76-4.65S83.52,150.05,83.52,152.68Zm-6.28.15c0,1.89.93,3.59,2.58,3.59s2.59-1.67,2.59-3.69c0-1.76-.84-3.6-2.58-3.6S77.24,150.88,77.24,152.83Z"/><path class="cls-15" d="M84.88,157.21v-8.87H86l2.59,4.49a26.09,26.09,0,0,1,1.46,2.88l0,0c-.1-1.18-.12-2.26-.12-3.64v-3.71h1v8.87h-1l-2.57-4.5a28.7,28.7,0,0,1-1.52-3h0c.06,1.12.08,2.18.08,3.66v3.79Z"/><path class="cls-15" d="M92.64,155.81a3.43,3.43,0,0,0,1.87.58,1.51,1.51,0,0,0,1.7-1.51c0-.83-.44-1.3-1.53-1.77-1.32-.51-2.14-1.26-2.14-2.51a2.41,2.41,0,0,1,2.62-2.4,3.46,3.46,0,0,1,1.79.43l-.29.93a3.06,3.06,0,0,0-1.54-.42,1.36,1.36,0,0,0-1.52,1.33c0,.83.49,1.24,1.61,1.71,1.37.58,2.06,1.3,2.06,2.61a2.53,2.53,0,0,1-2.83,2.55,3.9,3.9,0,0,1-2.07-.57Z"/><path class="cls-15" d="M100,154.42l-.85,2.79H98.09l2.75-8.87h1.26l2.77,8.87h-1.12l-.86-2.79Zm2.65-.9-.79-2.55c-.18-.58-.3-1.1-.42-1.62h0c-.12.53-.25,1.07-.41,1.61l-.79,2.56Z"/><path class="cls-15" d="M106.06,148.46a9,9,0,0,1,1.91-.18,3.12,3.12,0,0,1,2.22.64,1.92,1.92,0,0,1,.67,1.56,2.08,2.08,0,0,1-1.37,2v0a2.23,2.23,0,0,1,1.67,2.22,2.52,2.52,0,0,1-.68,1.78,3.86,3.86,0,0,1-2.8.82,11.75,11.75,0,0,1-1.62-.1Zm1,3.63h1c1.11,0,1.76-.63,1.76-1.49,0-1-.72-1.44-1.78-1.44a4.12,4.12,0,0,0-.93.08Zm0,4.25a5.2,5.2,0,0,0,.88,0c1.08,0,2.08-.43,2.08-1.72s-1-1.71-2.09-1.71h-.87Z"/><path class="cls-15" d="M113.62,148.34v8.87h-1.05v-8.87Z"/><path class="cls-15" d="M115.44,148.34h1v7.91H120v1h-4.51Z"/><path class="cls-15" d="M122.16,148.34v8.87h-1v-8.87Z"/><path class="cls-15" d="M124,148.46a13.33,13.33,0,0,1,2.23-.18,4.36,4.36,0,0,1,3.27,1.1,4.28,4.28,0,0,1,1.14,3.18,4.94,4.94,0,0,1-1.16,3.45,4.73,4.73,0,0,1-3.58,1.27,16.91,16.91,0,0,1-1.9-.1Zm1,7.84a6.38,6.38,0,0,0,1.06.06c2.23,0,3.44-1.36,3.44-3.76,0-2.09-1.07-3.42-3.28-3.42a5.76,5.76,0,0,0-1.22.12Z"/><path class="cls-15" d="M133.13,154.42l-.84,2.79h-1.08l2.75-8.87h1.26l2.76,8.87h-1.12l-.86-2.79Zm2.65-.9L135,151c-.18-.58-.3-1.1-.42-1.62h0c-.12.53-.25,1.07-.4,1.61l-.8,2.56Z"/><path class="cls-15" d="M139.17,148.46a13.2,13.2,0,0,1,2.22-.18,4.4,4.4,0,0,1,3.28,1.1,4.28,4.28,0,0,1,1.14,3.18,5,5,0,0,1-1.16,3.45,4.73,4.73,0,0,1-3.58,1.27,16.77,16.77,0,0,1-1.9-.1Zm1.05,7.84a6.25,6.25,0,0,0,1.05.06c2.24,0,3.45-1.36,3.45-3.76,0-2.09-1.07-3.42-3.28-3.42a5.68,5.68,0,0,0-1.22.12Z"/><path class="cls-15" d="M146,158.82a19.34,19.34,0,0,0,.72-3.14l1.18-.13a16.64,16.64,0,0,1-1.14,3.19Z"/><path class="cls-15" d="M157.45,156.92a4.77,4.77,0,0,1-2.13.42c-2.29,0-4-1.58-4-4.49s1.71-4.65,4.22-4.65a4.06,4.06,0,0,1,1.93.39l-.26.93a3.51,3.51,0,0,0-1.63-.36c-1.9,0-3.16,1.32-3.16,3.65,0,2.17,1.14,3.57,3.11,3.57a3.93,3.93,0,0,0,1.71-.37Z"/><path class="cls-15" d="M160.12,154.42l-.84,2.79H158.2l2.75-8.87h1.26l2.76,8.87h-1.11l-.87-2.79Zm2.66-.9L162,151c-.18-.58-.3-1.1-.42-1.62h0c-.12.53-.25,1.07-.41,1.61l-.79,2.56Z"/><path class="cls-15" d="M166.17,148.34h1v7.91h3.46v1h-4.5Z"/><path class="cls-15" d="M172.88,148.34v8.87h-1v-8.87Z"/><path class="cls-15" d="M174.71,148.46a13.2,13.2,0,0,1,2.22-.18,4.4,4.4,0,0,1,3.28,1.1,4.28,4.28,0,0,1,1.14,3.18,5,5,0,0,1-1.17,3.45,4.69,4.69,0,0,1-3.57,1.27,16.77,16.77,0,0,1-1.9-.1Zm1,7.84a6.45,6.45,0,0,0,1.06.06c2.23,0,3.45-1.36,3.45-3.76,0-2.09-1.07-3.42-3.28-3.42a5.87,5.87,0,0,0-1.23.12Z"/><path class="cls-15" d="M183.85,154.42l-.84,2.79h-1.08l2.75-8.87h1.26l2.76,8.87h-1.11l-.87-2.79Zm2.65-.9-.79-2.55c-.18-.58-.3-1.1-.42-1.62h0c-.12.53-.25,1.07-.41,1.61l-.79,2.56Z"/><path class="cls-15" d="M189.89,148.46a13.33,13.33,0,0,1,2.23-.18,4.36,4.36,0,0,1,3.27,1.1,4.25,4.25,0,0,1,1.15,3.18,5,5,0,0,1-1.17,3.45,4.71,4.71,0,0,1-3.58,1.27,16.91,16.91,0,0,1-1.9-.1Zm1.05,7.84a6.38,6.38,0,0,0,1.06.06c2.23,0,3.44-1.36,3.44-3.76,0-2.09-1.07-3.42-3.28-3.42a5.76,5.76,0,0,0-1.22.12Z"/><path class="cls-15" d="M201.69,157.21v-3.77l-2.56-5.1h1.19l1.14,2.45c.32.67.56,1.21.81,1.82h0c.23-.57.51-1.15.82-1.82l1.16-2.45h1.19l-2.71,5.09v3.78Z"/><path class="cls-15" d="M214.59,156.92a4.77,4.77,0,0,1-2.13.42c-2.29,0-4-1.58-4-4.49s1.71-4.65,4.22-4.65a4.06,4.06,0,0,1,1.93.39l-.26.93a3.51,3.51,0,0,0-1.63-.36c-1.9,0-3.16,1.32-3.16,3.65,0,2.17,1.14,3.57,3.11,3.57a3.93,3.93,0,0,0,1.71-.37Z"/><path class="cls-15" d="M222.57,152.68c0,3-1.69,4.67-3.76,4.67s-3.64-1.82-3.64-4.5,1.6-4.65,3.76-4.65S222.57,150.05,222.57,152.68Zm-6.28.15c0,1.89.94,3.59,2.58,3.59s2.6-1.67,2.6-3.69c0-1.76-.85-3.6-2.59-3.6S216.29,150.88,216.29,152.83Z"/><path class="cls-15" d="M230.75,153.31c-.06-1.23-.13-2.72-.12-3.82h0c-.28,1-.62,2.14-1,3.36l-1.43,4.3h-.8L226,152.93c-.38-1.25-.7-2.39-.93-3.44h0c0,1.1-.08,2.59-.15,3.92l-.22,3.8h-1l.57-8.87h1.33l1.38,4.29c.34,1.09.62,2.06.82,3h0c.2-.89.49-1.86.85-3l1.44-4.29h1.33l.51,8.87h-1Z"/><path class="cls-15" d="M233.59,148.45a10.52,10.52,0,0,1,2-.17,3.15,3.15,0,0,1,2.27.73,2.52,2.52,0,0,1,.7,1.86,2.74,2.74,0,0,1-.62,1.89,3.16,3.16,0,0,1-2.47,1,3.07,3.07,0,0,1-.84-.08v3.56h-1Zm1,4.27a3,3,0,0,0,.86.09,1.79,1.79,0,0,0,2-1.89c0-1.17-.76-1.74-1.91-1.74a4.11,4.11,0,0,0-1,.09Z"/><path class="cls-15" d="M240,148.46a9.93,9.93,0,0,1,2-.18,3.11,3.11,0,0,1,2.34.72,2.47,2.47,0,0,1-.89,3.94v0a2.19,2.19,0,0,1,1.19,1.79,16.1,16.1,0,0,0,.62,2.44h-1.08a13,13,0,0,1-.54-2.12c-.24-1.23-.67-1.68-1.62-1.73h-1v3.85H240Zm1.05,4h1.07a1.65,1.65,0,0,0,1.82-1.69c0-1.14-.76-1.64-1.86-1.65a4.15,4.15,0,0,0-1,.1Z"/><path class="cls-15" d="M253.4,152.68c0,3-1.69,4.67-3.76,4.67s-3.64-1.82-3.64-4.5,1.6-4.65,3.76-4.65S253.4,150.05,253.4,152.68Zm-6.28.15c0,1.89.94,3.59,2.58,3.59s2.59-1.67,2.59-3.69c0-1.76-.84-3.6-2.58-3.6S247.12,150.88,247.12,152.83Z"/><path class="cls-15" d="M261.58,153.31c-.06-1.23-.13-2.72-.12-3.82h0c-.28,1-.62,2.14-1,3.36l-1.42,4.3h-.8l-1.31-4.22c-.38-1.25-.7-2.39-.93-3.44h0c0,1.1-.08,2.59-.15,3.92l-.22,3.8h-1l.57-8.87h1.33l1.38,4.29c.34,1.09.61,2.06.82,3h0c.2-.89.49-1.86.85-3l1.44-4.29h1.33l.51,8.87h-1Z"/><path class="cls-15" d="M265.46,148.34v8.87h-1v-8.87Z"/><path class="cls-15" d="M267.15,155.81a3.43,3.43,0,0,0,1.87.58,1.5,1.5,0,0,0,1.69-1.51c0-.83-.43-1.3-1.52-1.77-1.32-.51-2.14-1.26-2.14-2.51a2.41,2.41,0,0,1,2.62-2.4,3.46,3.46,0,0,1,1.79.43l-.29.93a3.06,3.06,0,0,0-1.54-.42,1.36,1.36,0,0,0-1.52,1.33c0,.83.49,1.24,1.61,1.71,1.37.58,2.06,1.3,2.06,2.61a2.53,2.53,0,0,1-2.83,2.55,3.87,3.87,0,0,1-2.07-.57Z"/><path class="cls-15" d="M280.13,152.68c0,3-1.69,4.67-3.76,4.67s-3.64-1.82-3.64-4.5,1.6-4.65,3.76-4.65S280.13,150.05,280.13,152.68Zm-6.28.15c0,1.89.94,3.59,2.58,3.59s2.6-1.67,2.6-3.69c0-1.76-.84-3.6-2.59-3.6S273.85,150.88,273.85,152.83Z"/></g></g></svg>